<svg width="29" height="23" viewBox="0 0 29 23" fill="none" xmlns="http://www.w3.org/2000/svg">
<path d="M25.5 0H2.83333C1.275 0 0.0141667 1.275 0.0141667 2.83333L0 19.8333C0 21.3917 1.275 22.6667 2.83333 22.6667H25.5C27.0583 22.6667 28.3333 21.3917 28.3333 19.8333V2.83333C28.3333 1.275 27.0583 0 25.5 0ZM24.9333 6.02083L14.9175 12.2825C14.4642 12.5658 13.8692 12.5658 13.4158 12.2825L3.4 6.02083C3.25795 5.94109 3.13355 5.83335 3.03434 5.70414C2.93513 5.57493 2.86317 5.42694 2.82282 5.26911C2.78246 5.11128 2.77455 4.94691 2.79955 4.78593C2.82456 4.62496 2.88198 4.47074 2.96832 4.33259C3.05465 4.19445 3.16813 4.07526 3.30186 3.98224C3.4356 3.88922 3.58682 3.82431 3.74637 3.79142C3.90592 3.75854 4.07048 3.75837 4.2301 3.79093C4.38972 3.82348 4.54107 3.88809 4.675 3.98083L14.1667 9.91667L23.6583 3.98083C23.7923 3.88809 23.9436 3.82348 24.1032 3.79093C24.2628 3.75837 24.4274 3.75854 24.587 3.79142C24.7465 3.82431 24.8977 3.88922 25.0315 3.98224C25.1652 4.07526 25.2787 4.19445 25.365 4.33259C25.4514 4.47074 25.5088 4.62496 25.5338 4.78593C25.5588 4.94691 25.5509 5.11128 25.5105 5.26911C25.4702 5.42694 25.3982 5.57493 25.299 5.70414C25.1998 5.83335 25.0754 5.94109 24.9333 6.02083Z" fill="#F8F8F8"/>
</svg>
