<svg width="40" height="40" viewBox="0 0 40 40" fill="none" xmlns="http://www.w3.org/2000/svg">
<circle cx="20" cy="20" r="20" fill="#D9D9D9"/>
<g clip-path="url(#clip0_49_5997)">
<path fill-rule="evenodd" clip-rule="evenodd" d="M19.9998 20C17.3394 20 15.177 17.8472 15.177 15.2C15.177 12.5528 17.3394 10.4 19.9998 10.4C22.6602 10.4 24.8226 12.5528 24.8226 15.2C24.8226 17.8472 22.6602 20 19.9998 20ZM24.531 20.8075C25.5225 20.018 26.2872 18.9799 26.7471 17.7989C27.207 16.6179 27.3458 15.336 27.1494 14.0839C26.673 10.9363 24.0426 8.41757 20.8662 8.05037C16.4838 7.54277 12.7662 10.9388 12.7662 15.2C12.7662 17.468 13.8222 19.4887 15.4686 20.8075C11.4222 22.3207 8.46781 25.874 8.00461 30.6692C7.98842 30.8373 8.0075 31.0071 8.06063 31.1675C8.11375 31.3279 8.19976 31.4754 8.31316 31.6007C8.42655 31.7259 8.56483 31.826 8.71916 31.8948C8.87348 31.9636 9.04047 31.9994 9.20942 32C9.50558 32.0024 9.79193 31.8941 10.0124 31.6963C10.2328 31.4985 10.3714 31.2255 10.401 30.9308C10.8846 25.5752 15.0042 22.4 19.9998 22.4C24.9954 22.4 29.115 25.5752 29.5986 30.9308C29.6282 31.2255 29.7668 31.4985 29.9873 31.6963C30.2077 31.8941 30.4941 32.0024 30.7902 32C31.5054 32 32.0622 31.3784 31.9938 30.6692C31.5318 25.874 28.5774 22.3207 24.5298 20.8075" fill="black"/>
</g>
<defs>
<clipPath id="clip0_49_5997">
<rect width="24" height="24" fill="white" transform="translate(8 8)"/>
</clipPath>
</defs>
</svg>
