<?xml version="1.0" encoding="UTF-8"?>
<svg version="1.1" xmlns="http://www.w3.org/2000/svg" width="980" height="918">
<path d="M0 0 C13.61898073 7.7703387 22.41605637 21.70234201 26.7734375 36.421875 C30.19132005 48.96896493 30.69709829 61.28665951 30.67550945 74.25117016 C30.67685897 75.61071099 30.67864448 76.97025145 30.68082169 78.32979122 C30.68552129 82.04878473 30.68405995 85.76775355 30.68154392 89.48674823 C30.67990371 93.53930614 30.68405758 97.59185894 30.68745309 101.6444152 C30.69259701 108.74165408 30.69402604 115.83888615 30.69299698 122.93612671 C30.69147042 133.49031583 30.69563741 144.04449741 30.7008716 154.59868507 C30.71053815 174.54646786 30.71335558 194.49424809 30.71392866 214.44203296 C30.71438835 229.84730457 30.71644743 245.25257517 30.71962929 260.65784645 C30.72052684 265.09352821 30.72141666 269.52920997 30.72230417 273.96489173 C30.72263574 275.61901219 30.72263574 275.61901219 30.72297401 277.30654922 C30.72912743 308.32097467 30.73307465 339.33539977 30.73263073 370.34982586 C30.73261515 371.51893028 30.73259957 372.6880347 30.73258352 373.89256653 C30.73250041 379.81796827 30.73240137 385.74337002 30.73229881 391.66877177 C30.7322689 393.43395644 30.7322689 393.43395644 30.73223837 395.23480141 C30.73219794 397.61455641 30.73215614 399.99431141 30.73211298 402.37406641 C30.73150022 439.39969078 30.7390073 476.42530599 30.75268555 513.45092773 C30.76804944 555.0564742 30.77665159 596.66201464 30.77572232 638.26756412 C30.77564769 642.70481765 30.77559899 647.14207119 30.77556801 651.57932472 C30.77555053 653.2181512 30.77555053 653.2181512 30.77553269 654.89008528 C30.77550193 672.46363733 30.78188477 690.03718141 30.79050027 707.61073109 C30.79898121 725.27523583 30.79996323 742.93972895 30.79339095 760.6042346 C30.78969834 771.0942249 30.79151906 781.58417985 30.80133329 792.0741664 C30.80733989 799.08777254 30.80603026 806.10135312 30.79886279 813.11495809 C30.79498707 817.10667477 30.79418889 821.09832311 30.80232015 825.09003492 C30.91275251 883.07540287 30.91275251 883.07540287 10.8359375 904.2265625 C3.44615266 911.41457847 -3.72523486 915.74375057 -14.2890625 915.66140747 C-17.85961407 915.31775598 -20.88779929 913.85599183 -24.0625 912.296875 C-25.130093 911.79636124 -25.130093 911.79636124 -26.21925354 911.28573608 C-27.75247747 910.56496955 -29.28247927 909.83731601 -30.80947876 909.10345459 C-34.08856314 907.52760444 -37.38286839 905.98485823 -40.67671204 904.44015503 C-42.38833845 903.63723091 -44.09917771 902.83262677 -45.80924988 902.02639771 C-53.66125928 898.33065073 -61.58314466 894.80489694 -69.52722168 891.3125 C-82.24327886 885.72040287 -94.86603579 879.96236326 -107.42254639 874.02130127 C-117.84582068 869.0938356 -128.34148613 864.35453401 -138.890625 859.703125 C-152.03972364 853.90384552 -165.11105031 847.953685 -178.140625 841.890625 C-179.00519318 841.48834686 -179.86976135 841.08606873 -180.76052856 840.67160034 C-181.62209564 840.27071198 -182.48366272 839.86982361 -183.37133789 839.45678711 C-194.00192195 834.51109102 -204.6490744 829.60580513 -215.328125 824.765625 C-216.32336685 824.3144783 -216.32336685 824.3144783 -217.3387146 823.85421753 C-220.00966113 822.64356453 -222.68061735 821.43293299 -225.35169983 820.22257996 C-231.75110916 817.3212897 -238.14153695 814.40048851 -244.53051758 811.47631836 C-247.4615328 810.13483373 -250.39368508 808.79588693 -253.3269043 807.45922852 C-259.96260567 804.43368936 -266.59166539 801.39662098 -273.19418335 798.29919434 C-276.13656794 796.920647 -279.08385411 795.55277542 -282.03173828 794.18603516 C-283.40571946 793.54564986 -284.77743614 792.90037618 -286.14648438 792.24951172 C-294.64082897 788.21320705 -302.79650539 785.34838832 -312.00317383 783.359375 C-317.01102377 782.04388855 -320.56684728 779.79985913 -324.453125 776.453125 C-325.12472656 775.90140625 -325.79632813 775.3496875 -326.48828125 774.78125 C-338.19705313 764.22305108 -344.38907747 747.80129474 -346.453125 732.453125 C-346.59445212 729.34885334 -346.59267541 726.24862243 -346.58734608 723.14153576 C-346.58969831 722.20772356 -346.59205054 721.27391136 -346.59447405 720.31180182 C-346.60115054 717.171169 -346.60070623 714.03057767 -346.60029602 710.88993835 C-346.60359549 708.61998536 -346.60732124 706.35003295 -346.6114375 704.08008128 C-346.62145627 697.8327882 -346.62517411 691.58550472 -346.62782681 685.33820474 C-346.63132951 679.29514995 -346.63947691 673.25210242 -346.64737075 667.2090522 C-346.66820524 651.01758701 -346.67868391 634.82612001 -346.68750035 618.63464455 C-346.69170883 610.97183233 -346.69693059 603.30902088 -346.70218488 595.64620932 C-346.72007542 569.40599309 -346.73507004 543.16577664 -346.74250507 516.92555523 C-346.74297983 515.27845005 -346.74345572 513.63134487 -346.74393274 511.98423969 C-346.74416911 511.16743744 -346.74440549 510.35063519 -346.74464903 509.50908135 C-346.7458502 505.3708817 -346.74706566 501.23268206 -346.74829102 497.09448242 C-346.74853117 496.27324948 -346.74877132 495.45201653 -346.74901874 494.60589774 C-346.75690808 467.99180212 -346.78033218 441.37775112 -346.81284696 414.76367497 C-346.84717482 386.61404793 -346.86685901 358.46444697 -346.87014931 330.31479865 C-346.87056684 327.22215735 -346.8710464 324.12951606 -346.87157249 321.03687477 C-346.87169569 320.2754009 -346.87181888 319.51392703 -346.8719458 318.72937819 C-346.87427428 306.49457818 -346.88991466 294.25983014 -346.91041434 282.02504863 C-346.93070949 269.71663107 -346.93613226 257.40827567 -346.92664371 245.09984448 C-346.92189908 238.43654637 -346.92397824 231.7733808 -346.94340515 225.11009598 C-346.9610582 219.0023376 -346.96002133 212.89486971 -346.94450786 206.78710816 C-346.94213507 204.58511182 -346.94643806 202.38309525 -346.95833651 200.18112978 C-347.03710279 184.63322386 -346.31883357 169.03024605 -338.765625 155.015625 C-338.4253125 154.36223145 -338.085 153.70883789 -337.734375 153.03564453 C-332.0872012 142.64227785 -323.17817288 132.86303675 -311.68850708 129.08114624 C-309.37974354 128.43250879 -307.10099628 128.01533357 -304.73779297 127.61181641 C-299.68551696 126.61787486 -295.38901142 124.90254287 -290.7734375 122.6640625 C-289.97557327 122.28873383 -289.17770905 121.91340515 -288.35566711 121.52670288 C-286.64682577 120.72168007 -284.94025146 119.91182989 -283.23580933 119.09753418 C-278.6664499 116.91503766 -274.08017358 114.76854576 -269.49609375 112.6171875 C-268.10104362 111.96073242 -268.10104362 111.96073242 -266.67781067 111.29101562 C-257.80764588 107.12622377 -248.86041354 103.14754434 -239.890625 99.203125 C-228.67479958 94.2616945 -217.5316811 89.19506469 -206.453125 83.953125 C-195.37447108 78.71113902 -184.23004538 73.64787515 -173.015625 68.703125 C-159.86652636 62.90384552 -146.79519969 56.953685 -133.765625 50.890625 C-132.90105682 50.48834686 -132.03648865 50.08606873 -131.14572144 49.67160034 C-130.28415436 49.27071198 -129.42258728 48.86982361 -128.53491211 48.45678711 C-115.91066346 42.58357291 -103.25265004 36.79008316 -90.57051086 31.0431366 C-89.58041267 30.59445976 -89.58041267 30.59445976 -88.5703125 30.13671875 C-87.91109299 29.83804398 -87.25187347 29.5393692 -86.57267761 29.23164368 C-80.84556641 26.63507923 -75.12702324 24.01999074 -69.41052246 21.40016174 C-65.71311023 19.70569921 -62.0147913 18.01331634 -58.31347656 16.32739258 C-56.86783025 15.66880076 -55.42219218 15.01019084 -53.9765625 14.3515625 C-53.26729614 14.02848618 -52.55802979 13.70540985 -51.82727051 13.37254333 C-47.59547158 11.44149044 -43.37549735 9.48703191 -39.16394043 7.51223755 C-36.51470383 6.27282238 -33.85946893 5.04664535 -31.20300293 3.82281494 C-29.38790509 2.98085488 -27.58098854 2.12132672 -25.77441406 1.26123047 C-16.45693448 -3.01212809 -9.5225013 -4.19936393 0 0 Z M-127.453125 397.453125 C-138.54993517 410.1915981 -142.40171138 424.8528634 -141.453125 441.453125 C-139.23572257 456.65548572 -131.6050803 469.46286389 -119.41015625 478.77734375 C-106.15827887 487.50970144 -91.98393536 490.40451246 -76.41796875 487.98046875 C-61.39273393 484.37008858 -49.27972162 475.89713358 -40.953125 462.890625 C-33.53579703 449.99751911 -31.29270228 435.84319384 -34.640625 421.203125 C-38.78109071 406.79735722 -47.36288149 394.9697116 -60.453125 387.453125 C-82.65323903 375.67795843 -109.85081866 378.39020175 -127.453125 397.453125 Z " fill="#010101" transform="translate(346.453125,2.546875)"/>
<path d="M0 0 C7.87299858 6.7482845 7.87299858 6.7482845 10.78881836 9.69116211 C11.44317368 10.34882065 12.09752899 11.00647919 12.77171326 11.68406677 C13.79543785 12.72023888 13.79543785 12.72023888 14.83984375 13.77734375 C15.56563126 14.50691788 16.29141876 15.236492 17.03919983 15.98817444 C20.11485362 19.0800273 23.18449158 22.17782709 26.25463867 25.27514648 C28.51009891 27.54881717 30.76865231 29.81938365 33.02734375 32.08984375 C34.048032 33.12297951 34.048032 33.12297951 35.08934021 34.17698669 C38.20768305 37.31099564 41.35207787 40.34414847 44.71508789 43.21508789 C50.00064737 47.77721036 54.87139155 52.76014124 59.78709412 57.71192932 C61.56855248 59.50632335 63.35326638 61.29742409 65.13879395 63.08776855 C69.5698343 67.53207369 73.9953724 71.98184463 78.42108154 76.43145752 C82.17255651 80.20276702 85.92614469 83.97194978 89.68247986 87.73841858 C91.4281471 89.49049796 93.17073952 91.24559477 94.91320801 93.00085449 C101.28178648 99.42151505 101.28178648 99.42151505 107.98632812 105.48632812 C113.26325304 109.9933528 118.08637674 114.97602249 122.97229004 119.89712524 C124.78735566 121.72512179 126.60567301 123.54982956 128.42480469 125.3737793 C132.93931916 129.90156143 137.44833337 134.43480807 141.95751953 138.96789551 C145.77945616 142.80966339 149.60350376 146.64930702 153.43029785 150.48623657 C155.20920255 152.27155545 156.98503396 154.05989139 158.76074219 155.84838867 C163.73285419 160.84292414 168.72377124 165.74846352 174.08810425 170.32632446 C180.79779219 176.19999229 186.99715091 182.68927721 193.32104492 188.97094727 C195.15950501 190.79270747 197.00333229 192.6090661 198.85229492 194.42016602 C201.52948727 197.0429487 204.19017999 199.68147951 206.84765625 202.32421875 C207.68079849 203.13469162 208.51394073 203.94516449 209.37232971 204.78019714 C210.12739304 205.5381105 210.88245636 206.29602386 211.66040039 207.0769043 C212.33132217 207.73973923 213.00224396 208.40257416 213.6934967 209.085495 C215 211 215 211 214.89108276 213.05819702 C213.88463815 215.25139076 212.87814686 216.38614461 211.08227539 217.99194336 C210.45091171 218.56844131 209.81954803 219.14493927 209.16905212 219.73890686 C208.46486649 220.37034103 207.76068085 221.00177521 207.03515625 221.65234375 C199.39481039 228.67284101 192.00149885 235.90145103 184.68359375 243.25390625 C183.59700059 244.3439691 182.51038137 245.43400596 181.42373657 246.52401733 C178.09242025 249.86762424 174.76469729 253.21479498 171.4375 256.5625 C167.52965154 260.49418621 163.62001498 264.42406424 159.70616341 268.34977531 C158.16653374 269.89577817 156.6299936 271.44480349 155.09361267 272.99403381 C151.18595882 276.92199016 147.289161 280.82420265 143.07446289 284.42553711 C137.91455817 288.84751166 133.18182788 293.70720139 128.39810181 298.5267334 C126.65025078 300.287525 124.89914028 302.04501864 123.1472168 303.80175781 C119.42863649 307.53168125 115.71401796 311.26553437 112 315 C107.69098571 319.33273773 103.38029623 323.66378153 99.06533813 327.99060059 C97.3529083 329.70944044 95.64355488 331.43129812 93.93432617 333.15332031 C89.12450835 337.98552044 84.28138904 342.69802403 79.09521484 347.12963867 C74.74708432 351.01113808 70.68783016 355.20566777 66.58329773 359.34153748 C64.86905414 361.06872676 63.15154698 362.7926132 61.43322754 364.51574707 C57.78597559 368.17433971 54.14268685 371.83686281 50.5 375.5 C46.2735937 379.75013369 42.04550978 383.99857062 37.81315613 388.24278259 C36.13396365 389.9283829 34.45784924 391.61700141 32.78186035 393.30578613 C27.86375273 398.24717341 22.91078681 403.08516158 17.60601807 407.61660767 C15.64142501 409.30886944 13.81238714 411.1037653 12.0078125 412.96484375 C11.36585938 413.61904297 10.72390625 414.27324219 10.0625 414.94726562 C8.74576129 416.29984298 7.4307164 417.65407091 6.1171875 419.00976562 C5.48296875 419.65494141 4.84875 420.30011719 4.1953125 420.96484375 C3.62828613 421.5487085 3.06125977 422.13257324 2.47705078 422.73413086 C1 424 1 424 -1 424 C-1 393.31 -1 362.62 -1 331 C-82.18 331 -163.36 331 -247 331 C-247 255.1 -247 179.2 -247 101 C-165.49 101 -83.98 101 0 101 C0 67.67 0 34.34 0 0 Z " fill="#020202" transform="translate(765,229)"/>
<path d="M0 0 C21.12 0 42.24 0 64 0 C64.09050494 23.43625503 64.16410077 46.87236723 64.20724869 70.30875301 C64.22782089 81.19214601 64.25583869 92.07542222 64.30175781 102.95874023 C64.34178983 112.45132692 64.36747157 121.94382898 64.37635398 131.43649775 C64.38154116 136.45674886 64.39361996 141.47675799 64.42292023 146.49693108 C64.45034872 151.23541183 64.4583904 155.97355409 64.45243073 160.7121067 C64.45351883 162.43848392 64.46130764 164.1648741 64.4768219 165.89118195 C64.60077781 180.41329184 62.91612897 194.70169387 56.3125 207.875 C55.9707373 208.57496094 55.62897461 209.27492188 55.27685547 209.99609375 C52.02014634 216.4062181 47.98614735 221.81273074 43 227 C42.26394531 227.78761719 41.52789063 228.57523438 40.76953125 229.38671875 C30.7658138 239.25638303 16.70052556 246.18192109 2.52334166 246.25816262 C1.73732714 246.25233693 0.95131263 246.24651125 0.14147949 246.24050903 C-1.14284194 246.24307231 -1.14284194 246.24307231 -2.45310926 246.24568737 C-5.30281086 246.24896393 -8.15227346 246.23800894 -11.00195312 246.22705078 C-13.05236811 246.22648627 -15.10278349 246.22680401 -17.15319824 246.22793579 C-22.70630201 246.22850875 -28.25931908 246.21676359 -33.81240273 246.20278788 C-39.6206582 246.19027107 -45.42891574 246.18910927 -51.23718262 246.18673706 C-62.23005158 246.18052509 -73.22288068 246.16411808 -84.2157321 246.14403808 C-96.73320714 246.12167029 -109.25068411 246.11068343 -121.76817417 246.10064721 C-147.51214329 246.07975162 -173.25605778 246.04307889 -199 246 C-199 221.58 -199 197.16 -199 172 C-133.33 172 -67.66 172 0 172 C0 115.24 0 58.48 0 0 Z " fill="#030303" transform="translate(654,592)"/>
<path d="M0 0 C26.89531629 -0.09038923 53.79050908 -0.16403386 80.68593884 -0.20724869 C93.17471452 -0.22784984 105.66338893 -0.25592371 118.15209961 -0.30175781 C129.04073208 -0.34170041 139.92929119 -0.36745059 150.81799489 -0.37635398 C156.58034145 -0.38155612 162.34247818 -0.39373217 168.10475731 -0.42292023 C173.53594914 -0.45020656 178.96684603 -0.45841834 184.3980999 -0.45243073 C186.38416398 -0.45352507 188.37023863 -0.46139968 190.35624313 -0.4768219 C210.94005316 -0.62873296 227.055452 4.0238668 242.17578125 18.921875 C257.93561147 35.44591536 263.52756946 57.58260929 263.34057617 79.82983398 C263.33972695 81.2408954 263.34021078 82.65195814 263.34190369 84.0630188 C263.34275357 87.84105618 263.32529409 91.61879941 263.30418181 95.39676929 C263.28524419 99.36451846 263.28365127 103.33227668 263.28010559 107.30006409 C263.27083474 114.79010565 263.24628924 122.28001359 263.21605712 129.7699967 C263.17603826 139.90781779 263.16001809 150.04567623 263.14255047 160.18355656 C263.11446366 176.12247084 263.05466153 192.06110335 263 208 C241.88 208 220.76 208 199 208 C199 163.78 199 119.56 199 74 C133.33 74 67.66 74 0 74 C0 49.58 0 25.16 0 0 Z " fill="#030303" transform="translate(455,80)"/>
</svg>
