<svg width="10" height="34" viewBox="0 0 10 34" fill="none" xmlns="http://www.w3.org/2000/svg">
<path d="M0.909212 29.7633V28.8602C0.929134 28.7872 0.962337 28.7208 0.975618 28.6477C1.26781 26.7485 2.84827 25.2477 4.70098 25.1215C6.77285 24.9754 8.52598 26.1574 9.09707 28.0832C9.17012 28.3356 9.22324 28.6012 9.28965 28.8602V29.7633C9.26973 29.8231 9.23652 29.8762 9.22988 29.9426C8.94434 31.6957 7.68262 33.0305 5.95605 33.409C5.82324 33.4355 5.69043 33.4754 5.55762 33.5086H4.65449C4.59473 33.4887 4.53496 33.4555 4.4752 33.4488C2.74863 33.1699 1.43382 31.9414 1.03535 30.2348C0.995507 30.0687 0.949056 29.916 0.909212 29.7633ZM9.28968 4.23681L9.28965 5.14C9.26973 5.21305 9.23652 5.27945 9.22988 5.3525C8.93105 7.265 7.34394 8.75914 5.47129 8.87867C3.40605 9.01148 1.65957 7.81617 1.09512 5.88375C1.02207 5.63801 0.968945 5.3857 0.90918 5.13997V4.23684C0.929102 4.17708 0.962305 4.12395 0.975586 4.06418C1.29434 2.33762 2.29707 1.20872 3.97051 0.670825C4.18965 0.597778 4.42207 0.557935 4.64785 0.498169H5.55098C5.61074 0.518091 5.67051 0.551294 5.73027 0.557935C7.46348 0.843481 8.77168 2.06536 9.17012 3.772C9.20999 3.93137 9.24984 4.08411 9.28968 4.23681ZM9.28965 16.5486V17.4517C9.26973 17.5247 9.23652 17.5911 9.22324 17.6642C8.92441 19.57 7.27754 21.104 5.41816 21.1837C3.32637 21.2767 1.55332 20.015 1.05527 18.0693C1.00215 17.8634 0.955664 17.6575 0.90918 17.4517V16.5486C0.929102 16.4755 0.962305 16.4091 0.975586 16.3361C1.26777 14.4302 2.92129 12.8962 4.78066 12.8099C6.87246 12.7103 8.64551 13.9786 9.14355 15.9243C9.19668 16.1368 9.24316 16.3427 9.28965 16.5486Z" 
fill="#515253"/>
</svg>
