<svg width="36" height="41" viewBox="0 0 36 41"  xmlns="http://www.w3.org/2000/svg">
<path d="M15.5281 3.21723C9.37656 8.2218 6.30156 14.2531 6.30156 21.3032C6.30156 23.4977 6.60313 24.5939 7.20312 24.5939L7.82188 24.3814C8.30937 24.1431 8.70156 24.0239 9.00313 24.0239C10.7641 24.0239 12.2375 24.8382 13.4172 26.4666C14.5984 28.0951 15.1891 30.1009 15.1891 32.496C15.1891 34.7937 14.5484 36.7459 13.275 38.3485C12 39.9512 10.4625 40.7515 8.6625 40.7515C6.15 40.7515 4.07656 39.4408 2.44375 36.8134C0.814063 34.192 0 30.8953 0 26.9294C0 22.4411 0.690625 18.3362 2.07812 14.6106C3.46875 10.8869 5.58438 7.52076 8.43438 4.51206C11.2844 1.50534 13.1031 0 13.8906 0C14.4156 0 14.8469 0.321723 15.1844 0.965168C15.5219 1.60663 15.6906 2.16666 15.6906 2.64329L15.5234 3.21524L15.5281 3.21723ZM35.7781 3.21723C29.6266 8.2218 26.5531 14.2511 26.5531 21.3052C26.5531 23.4997 26.8547 24.5959 27.4547 24.5959L28.0734 24.3834C28.5609 24.1451 28.9531 24.0259 29.2547 24.0259C30.9781 24.0259 32.4422 24.8402 33.6406 26.4686C34.8438 28.0971 35.4406 30.1029 35.4406 32.498C35.4406 34.7957 34.8 36.7479 33.5266 38.3505C32.2516 39.9532 30.7141 40.7535 28.9141 40.7535C26.4016 40.7535 24.3281 39.4428 22.6953 36.8154C21.0656 34.1939 20.2516 30.8973 20.2516 26.9314C20.2516 22.3955 20.9516 18.2528 22.3609 14.5073C23.7672 10.7598 25.8844 7.40359 28.7156 4.44454C31.5516 1.4835 33.3594 0.00198674 34.1453 0.00198674C34.6719 0.00198674 35.1031 0.323709 35.4422 0.967154C35.7781 1.6106 35.9469 2.17063 35.9469 2.64726L35.7781 3.21723Z" fill="#01FC02"/>
</svg>
