<svg width="25" height="25" viewBox="0 0 25 25" fill="none" xmlns="http://www.w3.org/2000/svg">
<path fill-rule="evenodd" clip-rule="evenodd" d="M12.5 1.25L15.5379 8.08001C15.6546 8.34234 15.8384 8.56928 16.0706 8.73806C16.3029 8.90685 16.5756 9.01141 16.8611 9.04135L24.2956 9.81995L18.7386 14.8198C18.5252 15.0118 18.3661 15.2567 18.2774 15.5298C18.1887 15.8028 18.1734 16.0944 18.2332 16.3752L19.7901 23.6865L13.3178 19.9465C13.0692 19.8029 12.7872 19.7272 12.5 19.7272C12.2129 19.7272 11.9309 19.8029 11.6823 19.9465L5.20996 23.6865L6.76684 16.3752C6.82665 16.0944 6.81138 15.8028 6.72269 15.5298C6.63394 15.2567 6.47486 15.0118 6.26142 14.8198L0.704468 9.81995L8.13895 9.04135C8.42448 9.01141 8.69712 8.90685 8.92941 8.73806C9.16169 8.56928 9.34542 8.34234 9.46211 8.08001L12.5 1.25Z" fill="#F4C01E"/>
</svg>
