<svg width="34" height="34" viewBox="0 0 34 34" fill="none" xmlns="http://www.w3.org/2000/svg">
<path fill-rule="evenodd" clip-rule="evenodd" d="M4.0065 1.08416C4.37831 0.712883 4.82477 0.424868 5.3163 0.239202C5.80783 0.0535355 6.33321 -0.0255415 6.85761 0.00721091C7.38201 0.0399634 7.89346 0.183797 8.35807 0.429181C8.82269 0.674565 9.22985 1.0159 9.55258 1.43055L13.3668 6.33103C14.0659 7.22994 14.3124 8.40087 14.0362 9.50592L12.8738 14.1599C12.8142 14.401 12.8176 14.6533 12.8839 14.8927C12.9501 15.132 13.0769 15.3503 13.2521 15.5263L18.473 20.7477C18.6493 20.9232 18.8679 21.0502 19.1076 21.1165C19.3474 21.1828 19.6001 21.186 19.8415 21.126L24.493 19.9635C25.0383 19.828 25.6073 19.8178 26.1572 19.9337C26.707 20.0497 27.2234 20.2887 27.6676 20.6329L32.5677 24.4454C34.3293 25.816 34.4908 28.4193 32.9141 29.994L30.7169 32.1913C29.1445 33.7639 26.7943 34.4546 24.6035 33.6832C18.9951 31.7123 13.9035 28.5016 9.7077 24.2902C5.49687 20.0947 2.28648 15.0035 0.315491 9.39542C-0.453735 7.20657 0.236868 4.85408 1.80932 3.28151L4.0065 1.08416Z" fill="#F8F8F8"/>
</svg>
