<svg width="69" height="69" viewBox="0 0 60 42" fill="none" xmlns="http://www.w3.org/2000/svg">
<path d="M0 5.58664C0 2.7152 2.4 0.384766 5.35714 0.384766H46.0714C49.0286 0.384766 51.4286 2.7152 51.4286 5.58664V28.4749C51.4286 31.3463 49.0286 33.6767 46.0714 33.6767H5.35714C2.4 33.6767 0 31.3463 0 28.4749V5.58664ZM12.8571 6.62701V4.54626H8.57143V6.62701C8.57143 7.17886 8.34566 7.7081 7.9438 8.09832C7.54194 8.48854 6.99689 8.70776 6.42857 8.70776H4.28571V12.8693H6.42857C8.13353 12.8693 9.76867 12.2116 10.9743 11.0409C12.1798 9.8703 12.8571 8.28256 12.8571 6.62701ZM34.2857 17.0308C34.2857 14.8234 33.3827 12.7064 31.7752 11.1455C30.1677 9.58464 27.9876 8.70776 25.7143 8.70776C23.441 8.70776 21.2608 9.58464 19.6534 11.1455C18.0459 12.7064 17.1429 14.8234 17.1429 17.0308C17.1429 19.2381 18.0459 21.3551 19.6534 22.916C21.2608 24.4769 23.441 25.3537 25.7143 25.3537C27.9876 25.3537 30.1677 24.4769 31.7752 22.916C33.3827 21.3551 34.2857 19.2381 34.2857 17.0308ZM42.8571 4.54626H38.5714V6.62701C38.5714 8.28256 39.2487 9.8703 40.4543 11.0409C41.6599 12.2116 43.295 12.8693 45 12.8693H47.1429V8.70776H45C44.4317 8.70776 43.8866 8.48854 43.4848 8.09832C43.0829 7.7081 42.8571 7.17886 42.8571 6.62701V4.54626ZM12.8571 27.4345C12.8571 25.7789 12.1798 24.1912 10.9743 23.0206C9.76867 21.8499 8.13353 21.1922 6.42857 21.1922H4.28571V25.3537H6.42857C6.99689 25.3537 7.54194 25.573 7.9438 25.9632C8.34566 26.3534 8.57143 26.8826 8.57143 27.4345V29.5152H12.8571V27.4345ZM42.8571 29.5152V27.4345C42.8571 26.8826 43.0829 26.3534 43.4848 25.9632C43.8866 25.573 44.4317 25.3537 45 25.3537H47.1429V21.1922H45C43.295 21.1922 41.6599 21.8499 40.4543 23.0206C39.2487 24.1912 38.5714 25.7789 38.5714 27.4345V29.5152H42.8571ZM15 41.9997C13.6424 42.0002 12.3194 41.5834 11.2208 40.8089C10.1222 40.0344 9.30425 38.942 8.88428 37.6884C9.48 37.7883 10.0886 37.8382 10.7143 37.8382H46.0714C48.6289 37.8382 51.0816 36.8517 52.89 35.0958C54.6983 33.3398 55.7143 30.9582 55.7143 28.4749V9.06149C56.9682 9.49196 58.0537 10.2895 58.8213 11.3441C59.5889 12.3987 60.0007 13.6586 60 14.95V28.4749C60 30.251 59.6397 32.0097 58.9397 33.6506C58.2398 35.2915 57.2138 36.7825 55.9204 38.0384C54.627 39.2943 53.0916 40.2905 51.4017 40.9702C49.7118 41.6499 47.9006 41.9997 46.0714 41.9997H15Z" fill="white"/>
</svg>
